# xmcd CD database file
#
# Track frame offsets:
#	150
#	18790
#	31384
#	41450
#	50203
#	62847
#	75992
#	86745
#	104447
#	117323
#	131962
#	145715
#
# Disc length: 2089 seconds
#
# Revision: 0
# Processed by: cddbd v1.5.2PL0 Copyright (c) Steve Scherf et al.
# Submitted via: ACXtractor (MTCDDB.DLL V2003.07.15)
#
DISCID=a008270c
DTITLE=Sidey and Annie-Ree - They Met in a Mountain Band
DYEAR=2005
DGENRE=Country
TTITLE0=You Ain't going Nowhere
TTITLE1=Auctioneer
TTITLE2=Rosanna
TTITLE3=They Met in a Mountain Band
TTITLE4=French Song
TTITLE5=You've Really got a Hold on Me
TTITLE6=Old man from the Mountains
TTITLE7=Home in Dirranbandi
TTITLE8=Don't Tell Me
TTITLE9=I Still Miss Someone
TTITLE10=Cryin' Time
TTITLE11=Merle Haggard you must have read my Mail
EXTD=ID3G:   2 YEAR: 2005
EXTT0=
EXTT1=
EXTT2=
EXTT3=
EXTT4=
EXTT5=
EXTT6=
EXTT7=
EXTT8=
EXTT9=
EXTT10=
EXTT11=
PLAYORDER=
